<svg width="88" height="32" viewBox="0 0 88 32" fill="none" xmlns="http://www.w3.org/2000/svg">
<rect width="88" height="32" rx="12" fill="#F8F8FA"/>
<path d="M61 11V21V11ZM56 16H66Z" fill="white"/>
<path d="M56 16H66M61 11V21V11Z" stroke="#0094F2" stroke-width="2" stroke-linecap="round" stroke-linejoin="round"/>
<path d="M23.268 12.764V15.212H26.148V16.328H23.268V18.884H26.508V20H21.9V11.648H26.508V12.764H23.268ZM30.809 16.7L33.857 20H32.009L29.561 17.156V20H28.193V11.12H29.561V16.28L31.961 13.388H33.857L30.809 16.7ZM36.2055 11.12V20H34.8375V11.12H36.2055ZM44.0616 16.532C44.0616 16.78 44.0456 17.004 44.0136 17.204H38.9616C39.0016 17.732 39.1976 18.156 39.5496 18.476C39.9016 18.796 40.3336 18.956 40.8456 18.956C41.5816 18.956 42.1016 18.648 42.4056 18.032H43.8816C43.6816 18.64 43.3176 19.14 42.7896 19.532C42.2696 19.916 41.6216 20.108 40.8456 20.108C40.2136 20.108 39.6456 19.968 39.1416 19.688C38.6456 19.4 38.2536 19 37.9656 18.488C37.6856 17.968 37.5456 17.368 37.5456 16.688C37.5456 16.008 37.6816 15.412 37.9536 14.9C38.2336 14.38 38.6216 13.98 39.1176 13.7C39.6216 13.42 40.1976 13.28 40.8456 13.28C41.4696 13.28 42.0256 13.416 42.5136 13.688C43.0016 13.96 43.3816 14.344 43.6536 14.84C43.9256 15.328 44.0616 15.892 44.0616 16.532ZM42.6336 16.1C42.6256 15.596 42.4456 15.192 42.0936 14.888C41.7416 14.584 41.3056 14.432 40.7856 14.432C40.3136 14.432 39.9096 14.584 39.5736 14.888C39.2376 15.184 39.0376 15.588 38.9736 16.1H42.6336Z" fill="#18172B"/>
</svg>
