<svg width="203" height="55" viewBox="0 0 203 55" fill="none" xmlns="http://www.w3.org/2000/svg">
<path d="M7.084 5.242V6.278H4.424V15H3.15V6.278H0.476V5.242H7.084ZM8.17622 11.136C8.17622 10.352 8.33489 9.666 8.65222 9.078C8.96955 8.48067 9.40355 8.01867 9.95422 7.692C10.5142 7.36533 11.1349 7.202 11.8162 7.202C12.4882 7.202 13.0716 7.34667 13.5662 7.636C14.0609 7.92533 14.4296 8.28933 14.6722 8.728V7.328H15.9602V15H14.6722V13.572C14.4202 14.02 14.0422 14.3933 13.5382 14.692C13.0436 14.9813 12.4649 15.126 11.8022 15.126C11.1209 15.126 10.5049 14.958 9.95422 14.622C9.40355 14.286 8.96955 13.8147 8.65222 13.208C8.33489 12.6013 8.17622 11.9107 8.17622 11.136ZM14.6722 11.15C14.6722 10.5713 14.5556 10.0673 14.3222 9.638C14.0889 9.20867 13.7716 8.882 13.3702 8.658C12.9782 8.42467 12.5442 8.308 12.0682 8.308C11.5922 8.308 11.1582 8.42 10.7662 8.644C10.3742 8.868 10.0616 9.19467 9.82822 9.624C9.59489 10.0533 9.47822 10.5573 9.47822 11.136C9.47822 11.724 9.59489 12.2373 9.82822 12.676C10.0616 13.1053 10.3742 13.4367 10.7662 13.67C11.1582 13.894 11.5922 14.006 12.0682 14.006C12.5442 14.006 12.9782 13.894 13.3702 13.67C13.7716 13.4367 14.0889 13.1053 14.3222 12.676C14.5556 12.2373 14.6722 11.7287 14.6722 11.15ZM21.9212 7.188C22.4998 7.188 23.0225 7.314 23.4892 7.566C23.9558 7.80867 24.3198 8.17733 24.5812 8.672C24.8518 9.16667 24.9872 9.76867 24.9872 10.478V15H23.7272V10.66C23.7272 9.89467 23.5358 9.31133 23.1532 8.91C22.7705 8.49933 22.2478 8.294 21.5852 8.294C20.9132 8.294 20.3765 8.504 19.9752 8.924C19.5832 9.344 19.3872 9.95533 19.3872 10.758V15H18.1132V4.64H19.3872V8.42C19.6392 8.028 19.9845 7.72467 20.4232 7.51C20.8712 7.29533 21.3705 7.188 21.9212 7.188ZM36.2942 7.188C36.8916 7.188 37.4236 7.314 37.8902 7.566C38.3569 7.80867 38.7256 8.17733 38.9962 8.672C39.2669 9.16667 39.4022 9.76867 39.4022 10.478V15H38.1422V10.66C38.1422 9.89467 37.9509 9.31133 37.5682 8.91C37.1949 8.49933 36.6862 8.294 36.0422 8.294C35.3796 8.294 34.8522 8.50867 34.4602 8.938C34.0682 9.358 33.8722 9.96933 33.8722 10.772V15H32.6122V10.66C32.6122 9.89467 32.4209 9.31133 32.0382 8.91C31.6649 8.49933 31.1562 8.294 30.5122 8.294C29.8496 8.294 29.3222 8.50867 28.9302 8.938C28.5382 9.358 28.3422 9.96933 28.3422 10.772V15H27.0682V7.328H28.3422V8.434C28.5942 8.03267 28.9302 7.72467 29.3502 7.51C29.7796 7.29533 30.2509 7.188 30.7642 7.188C31.4082 7.188 31.9776 7.33267 32.4722 7.622C32.9669 7.91133 33.3356 8.336 33.5782 8.896C33.7929 8.35467 34.1476 7.93467 34.6422 7.636C35.1369 7.33733 35.6876 7.188 36.2942 7.188ZM42.1501 6.082C41.9074 6.082 41.7021 5.998 41.5341 5.83C41.3661 5.662 41.2821 5.45667 41.2821 5.214C41.2821 4.97133 41.3661 4.766 41.5341 4.598C41.7021 4.43 41.9074 4.346 42.1501 4.346C42.3834 4.346 42.5794 4.43 42.7381 4.598C42.9061 4.766 42.9901 4.97133 42.9901 5.214C42.9901 5.45667 42.9061 5.662 42.7381 5.83C42.5794 5.998 42.3834 6.082 42.1501 6.082ZM42.7661 7.328V15H41.4921V7.328H42.7661ZM48.6754 7.188C49.6087 7.188 50.3647 7.47267 50.9434 8.042C51.522 8.602 51.8114 9.414 51.8114 10.478V15H50.5514V10.66C50.5514 9.89467 50.36 9.31133 49.9774 8.91C49.5947 8.49933 49.072 8.294 48.4094 8.294C47.7374 8.294 47.2007 8.504 46.7994 8.924C46.4074 9.344 46.2114 9.95533 46.2114 10.758V15H44.9374V7.328H46.2114V8.42C46.4634 8.028 46.804 7.72467 47.2334 7.51C47.672 7.29533 48.1527 7.188 48.6754 7.188ZM54.5505 6.082C54.3078 6.082 54.1025 5.998 53.9345 5.83C53.7665 5.662 53.6825 5.45667 53.6825 5.214C53.6825 4.97133 53.7665 4.766 53.9345 4.598C54.1025 4.43 54.3078 4.346 54.5505 4.346C54.7838 4.346 54.9798 4.43 55.1385 4.598C55.3065 4.766 55.3905 4.97133 55.3905 5.214C55.3905 5.45667 55.3065 5.662 55.1385 5.83C54.9798 5.998 54.7838 6.082 54.5505 6.082ZM55.1665 7.328V15H53.8925V7.328H55.1665ZM67.0762 5.242V6.278H64.4162V15H63.1422V6.278H60.4682V5.242H67.0762ZM75.6444 10.87C75.6444 11.1127 75.6304 11.3693 75.6024 11.64H69.4704C69.5171 12.396 69.7737 12.9887 70.2404 13.418C70.7164 13.838 71.2904 14.048 71.9624 14.048C72.5131 14.048 72.9704 13.922 73.3344 13.67C73.7077 13.4087 73.9691 13.0633 74.1184 12.634H75.4904C75.2851 13.3713 74.8744 13.9733 74.2584 14.44C73.6424 14.8973 72.8771 15.126 71.9624 15.126C71.2344 15.126 70.5811 14.9627 70.0024 14.636C69.4331 14.3093 68.9851 13.8473 68.6584 13.25C68.3317 12.6433 68.1684 11.9433 68.1684 11.15C68.1684 10.3567 68.3271 9.66133 68.6444 9.064C68.9617 8.46667 69.4051 8.00933 69.9744 7.692C70.5531 7.36533 71.2157 7.202 71.9624 7.202C72.6904 7.202 73.3344 7.36067 73.8944 7.678C74.4544 7.99533 74.8837 8.434 75.1824 8.994C75.4904 9.54467 75.6444 10.17 75.6444 10.87ZM74.3284 10.604C74.3284 10.1187 74.2211 9.70333 74.0064 9.358C73.7917 9.00333 73.4977 8.73733 73.1244 8.56C72.7604 8.37333 72.3544 8.28 71.9064 8.28C71.2624 8.28 70.7117 8.48533 70.2544 8.896C69.8064 9.30667 69.5497 9.876 69.4844 10.604H74.3284ZM80.042 15.126C79.454 15.126 78.9267 15.028 78.46 14.832C77.9934 14.6267 77.6247 14.3467 77.354 13.992C77.0834 13.628 76.934 13.2127 76.906 12.746H78.222C78.2594 13.1287 78.4367 13.4413 78.754 13.684C79.0807 13.9267 79.5054 14.048 80.028 14.048C80.5134 14.048 80.896 13.9407 81.176 13.726C81.456 13.5113 81.596 13.2407 81.596 12.914C81.596 12.578 81.4467 12.3307 81.148 12.172C80.8494 12.004 80.3874 11.8407 79.762 11.682C79.1927 11.5327 78.726 11.3833 78.362 11.234C78.0074 11.0753 77.6994 10.8467 77.438 10.548C77.186 10.24 77.06 9.83867 77.06 9.344C77.06 8.952 77.1767 8.59267 77.41 8.266C77.6434 7.93933 77.9747 7.68267 78.404 7.496C78.8334 7.3 79.3234 7.202 79.874 7.202C80.7234 7.202 81.4094 7.41667 81.932 7.846C82.4547 8.27533 82.7347 8.86333 82.772 9.61H81.498C81.47 9.20867 81.3067 8.88667 81.008 8.644C80.7187 8.40133 80.3267 8.28 79.832 8.28C79.3747 8.28 79.0107 8.378 78.74 8.574C78.4694 8.77 78.334 9.02667 78.334 9.344C78.334 9.596 78.4134 9.806 78.572 9.974C78.74 10.1327 78.9454 10.2633 79.188 10.366C79.44 10.4593 79.7854 10.5667 80.224 10.688C80.7747 10.8373 81.2227 10.9867 81.568 11.136C81.9134 11.276 82.2074 11.4907 82.45 11.78C82.702 12.0693 82.8327 12.4473 82.842 12.914C82.842 13.334 82.7254 13.712 82.492 14.048C82.2587 14.384 81.9274 14.65 81.498 14.846C81.078 15.0327 80.5927 15.126 80.042 15.126ZM85.9145 4.64V15H84.6405V4.64H85.9145ZM88.7438 6.082C88.5011 6.082 88.2958 5.998 88.1278 5.83C87.9598 5.662 87.8758 5.45667 87.8758 5.214C87.8758 4.97133 87.9598 4.766 88.1278 4.598C88.2958 4.43 88.5011 4.346 88.7438 4.346C88.9771 4.346 89.1731 4.43 89.3318 4.598C89.4998 4.766 89.5838 4.97133 89.5838 5.214C89.5838 5.45667 89.4998 5.662 89.3318 5.83C89.1731 5.998 88.9771 6.082 88.7438 6.082ZM89.3598 7.328V15H88.0858V7.328H89.3598ZM100.757 7.188C101.354 7.188 101.886 7.314 102.353 7.566C102.82 7.80867 103.188 8.17733 103.459 8.672C103.73 9.16667 103.865 9.76867 103.865 10.478V15H102.605V10.66C102.605 9.89467 102.414 9.31133 102.031 8.91C101.658 8.49933 101.149 8.294 100.505 8.294C99.8425 8.294 99.3151 8.50867 98.9231 8.938C98.5311 9.358 98.3351 9.96933 98.3351 10.772V15H97.0751V10.66C97.0751 9.89467 96.8838 9.31133 96.5011 8.91C96.1278 8.49933 95.6191 8.294 94.9751 8.294C94.3125 8.294 93.7851 8.50867 93.3931 8.938C93.0011 9.358 92.8051 9.96933 92.8051 10.772V15H91.5311V7.328H92.8051V8.434C93.0571 8.03267 93.3931 7.72467 93.8131 7.51C94.2425 7.29533 94.7138 7.188 95.2271 7.188C95.8711 7.188 96.4405 7.33267 96.9351 7.622C97.4298 7.91133 97.7985 8.336 98.0411 8.896C98.2558 8.35467 98.6105 7.93467 99.1051 7.636C99.5998 7.33733 100.15 7.188 100.757 7.188ZM105.479 11.136C105.479 10.352 105.638 9.666 105.955 9.078C106.272 8.48067 106.706 8.01867 107.257 7.692C107.817 7.36533 108.438 7.202 109.119 7.202C109.791 7.202 110.374 7.34667 110.869 7.636C111.364 7.92533 111.732 8.28933 111.975 8.728V7.328H113.263V15H111.975V13.572C111.723 14.02 111.345 14.3933 110.841 14.692C110.346 14.9813 109.768 15.126 109.105 15.126C108.424 15.126 107.808 14.958 107.257 14.622C106.706 14.286 106.272 13.8147 105.955 13.208C105.638 12.6013 105.479 11.9107 105.479 11.136ZM111.975 11.15C111.975 10.5713 111.858 10.0673 111.625 9.638C111.392 9.20867 111.074 8.882 110.673 8.658C110.281 8.42467 109.847 8.308 109.371 8.308C108.895 8.308 108.461 8.42 108.069 8.644C107.677 8.868 107.364 9.19467 107.131 9.624C106.898 10.0533 106.781 10.5573 106.781 11.136C106.781 11.724 106.898 12.2373 107.131 12.676C107.364 13.1053 107.677 13.4367 108.069 13.67C108.461 13.894 108.895 14.006 109.371 14.006C109.847 14.006 110.281 13.894 110.673 13.67C111.074 13.4367 111.392 13.1053 111.625 12.676C111.858 12.2373 111.975 11.7287 111.975 11.15ZM116.97 8.378V12.9C116.97 13.2733 117.049 13.5393 117.208 13.698C117.367 13.8473 117.642 13.922 118.034 13.922H118.972V15H117.824C117.115 15 116.583 14.8367 116.228 14.51C115.873 14.1833 115.696 13.6467 115.696 12.9V8.378H114.702V7.328H115.696V5.396H116.97V7.328H118.972V8.378H116.97ZM125.326 13.894H130.086V15H123.814V13.992L128.546 6.348H123.87V5.242H130.058V6.25L125.326 13.894ZM131.346 11.136C131.346 10.352 131.505 9.666 131.822 9.078C132.139 8.48067 132.573 8.01867 133.124 7.692C133.684 7.36533 134.305 7.202 134.986 7.202C135.658 7.202 136.241 7.34667 136.736 7.636C137.231 7.92533 137.599 8.28933 137.842 8.728V7.328H139.13V15H137.842V13.572C137.59 14.02 137.212 14.3933 136.708 14.692C136.213 14.9813 135.635 15.126 134.972 15.126C134.291 15.126 133.675 14.958 133.124 14.622C132.573 14.286 132.139 13.8147 131.822 13.208C131.505 12.6013 131.346 11.9107 131.346 11.136ZM137.842 11.15C137.842 10.5713 137.725 10.0673 137.492 9.638C137.259 9.20867 136.941 8.882 136.54 8.658C136.148 8.42467 135.714 8.308 135.238 8.308C134.762 8.308 134.328 8.42 133.936 8.644C133.544 8.868 133.231 9.19467 132.998 9.624C132.765 10.0533 132.648 10.5573 132.648 11.136C132.648 11.724 132.765 12.2373 132.998 12.676C133.231 13.1053 133.544 13.4367 133.936 13.67C134.328 13.894 134.762 14.006 135.238 14.006C135.714 14.006 136.148 13.894 136.54 13.67C136.941 13.4367 137.259 13.1053 137.492 12.676C137.725 12.2373 137.842 11.7287 137.842 11.15ZM150.509 7.188C151.106 7.188 151.638 7.314 152.105 7.566C152.572 7.80867 152.94 8.17733 153.211 8.672C153.482 9.16667 153.617 9.76867 153.617 10.478V15H152.357V10.66C152.357 9.89467 152.166 9.31133 151.783 8.91C151.41 8.49933 150.901 8.294 150.257 8.294C149.594 8.294 149.067 8.50867 148.675 8.938C148.283 9.358 148.087 9.96933 148.087 10.772V15H146.827V10.66C146.827 9.89467 146.636 9.31133 146.253 8.91C145.88 8.49933 145.371 8.294 144.727 8.294C144.064 8.294 143.537 8.50867 143.145 8.938C142.753 9.358 142.557 9.96933 142.557 10.772V15H141.283V7.328H142.557V8.434C142.809 8.03267 143.145 7.72467 143.565 7.51C143.994 7.29533 144.466 7.188 144.979 7.188C145.623 7.188 146.192 7.33267 146.687 7.622C147.182 7.91133 147.55 8.336 147.793 8.896C148.008 8.35467 148.362 7.93467 148.857 7.636C149.352 7.33733 149.902 7.188 150.509 7.188ZM155.231 11.136C155.231 10.352 155.39 9.666 155.707 9.078C156.024 8.48067 156.458 8.01867 157.009 7.692C157.569 7.36533 158.19 7.202 158.871 7.202C159.543 7.202 160.126 7.34667 160.621 7.636C161.116 7.92533 161.484 8.28933 161.727 8.728V7.328H163.015V15H161.727V13.572C161.475 14.02 161.097 14.3933 160.593 14.692C160.098 14.9813 159.52 15.126 158.857 15.126C158.176 15.126 157.56 14.958 157.009 14.622C156.458 14.286 156.024 13.8147 155.707 13.208C155.39 12.6013 155.231 11.9107 155.231 11.136ZM161.727 11.15C161.727 10.5713 161.61 10.0673 161.377 9.638C161.144 9.20867 160.826 8.882 160.425 8.658C160.033 8.42467 159.599 8.308 159.123 8.308C158.647 8.308 158.213 8.42 157.821 8.644C157.429 8.868 157.116 9.19467 156.883 9.624C156.65 10.0533 156.533 10.5573 156.533 11.136C156.533 11.724 156.65 12.2373 156.883 12.676C157.116 13.1053 157.429 13.4367 157.821 13.67C158.213 13.894 158.647 14.006 159.123 14.006C159.599 14.006 160.033 13.894 160.425 13.67C160.826 13.4367 161.144 13.1053 161.377 12.676C161.61 12.2373 161.727 11.7287 161.727 11.15ZM168.906 7.188C169.839 7.188 170.595 7.47267 171.174 8.042C171.753 8.602 172.042 9.414 172.042 10.478V15H170.782V10.66C170.782 9.89467 170.591 9.31133 170.208 8.91C169.825 8.49933 169.303 8.294 168.64 8.294C167.968 8.294 167.431 8.504 167.03 8.924C166.638 9.344 166.442 9.95533 166.442 10.758V15H165.168V7.328H166.442V8.42C166.694 8.028 167.035 7.72467 167.464 7.51C167.903 7.29533 168.383 7.188 168.906 7.188ZM175.397 7.328V15H174.123V7.328H175.397Z" fill="#6E80B0"/>
<path d="M37.94 43.84C39.22 42.7733 40.24 41.8867 41 41.18C41.76 40.46 42.3933 39.7133 42.9 38.94C43.4067 38.1667 43.66 37.4067 43.66 36.66C43.66 35.98 43.5 35.4467 43.18 35.06C42.86 34.6733 42.3667 34.48 41.7 34.48C41.0333 34.48 40.52 34.7067 40.16 35.16C39.8 35.6 39.6133 36.2067 39.6 36.98H36.88C36.9333 35.38 37.4067 34.1667 38.3 33.34C39.2067 32.5133 40.3533 32.1 41.74 32.1C43.26 32.1 44.4267 32.5067 45.24 33.32C46.0533 34.12 46.46 35.18 46.46 36.5C46.46 37.54 46.18 38.5333 45.62 39.48C45.06 40.4267 44.42 41.2533 43.7 41.96C42.98 42.6533 42.04 43.4933 40.88 44.48H46.78V46.8H36.9V44.72L37.94 43.84ZM48.5444 39.52C48.5444 37.2133 48.9577 35.4067 49.7844 34.1C50.6244 32.7933 52.011 32.14 53.9444 32.14C55.8777 32.14 57.2577 32.7933 58.0844 34.1C58.9244 35.4067 59.3444 37.2133 59.3444 39.52C59.3444 41.84 58.9244 43.66 58.0844 44.98C57.2577 46.3 55.8777 46.96 53.9444 46.96C52.011 46.96 50.6244 46.3 49.7844 44.98C48.9577 43.66 48.5444 41.84 48.5444 39.52ZM56.5844 39.52C56.5844 38.5333 56.5177 37.7067 56.3844 37.04C56.2644 36.36 56.011 35.8067 55.6244 35.38C55.251 34.9533 54.691 34.74 53.9444 34.74C53.1977 34.74 52.631 34.9533 52.2444 35.38C51.871 35.8067 51.6177 36.36 51.4844 37.04C51.3644 37.7067 51.3044 38.5333 51.3044 39.52C51.3044 40.5333 51.3644 41.3867 51.4844 42.08C51.6044 42.76 51.8577 43.3133 52.2444 43.74C52.631 44.1533 53.1977 44.36 53.9444 44.36C54.691 44.36 55.2577 44.1533 55.6444 43.74C56.031 43.3133 56.2844 42.76 56.4044 42.08C56.5244 41.3867 56.5844 40.5333 56.5844 39.52ZM71.4397 33.04C72.9064 33.04 74.193 33.3267 75.2997 33.9C76.4197 34.4733 77.2797 35.2933 77.8797 36.36C78.493 37.4133 78.7997 38.64 78.7997 40.04C78.7997 41.44 78.493 42.6667 77.8797 43.72C77.2797 44.76 76.4197 45.5667 75.2997 46.14C74.193 46.7133 72.9064 47 71.4397 47H66.5597V33.04H71.4397ZM71.3397 44.62C72.8064 44.62 73.9397 44.22 74.7397 43.42C75.5397 42.62 75.9397 41.4933 75.9397 40.04C75.9397 38.5867 75.5397 37.4533 74.7397 36.64C73.9397 35.8133 72.8064 35.4 71.3397 35.4H69.3597V44.62H71.3397ZM80.1756 41.42C80.1756 40.3 80.3956 39.3067 80.8356 38.44C81.289 37.5733 81.8956 36.9067 82.6556 36.44C83.429 35.9733 84.289 35.74 85.2356 35.74C86.0623 35.74 86.7823 35.9067 87.3956 36.24C88.0223 36.5733 88.5223 36.9933 88.8956 37.5V35.92H91.7156V47H88.8956V45.38C88.5356 45.9 88.0356 46.3333 87.3956 46.68C86.769 47.0133 86.0423 47.18 85.2156 47.18C84.2823 47.18 83.429 46.94 82.6556 46.46C81.8956 45.98 81.289 45.3067 80.8356 44.44C80.3956 43.56 80.1756 42.5533 80.1756 41.42ZM88.8956 41.46C88.8956 40.78 88.7623 40.2 88.4956 39.72C88.229 39.2267 87.869 38.8533 87.4156 38.6C86.9623 38.3333 86.4756 38.2 85.9556 38.2C85.4356 38.2 84.9556 38.3267 84.5156 38.58C84.0756 38.8333 83.7156 39.2067 83.4356 39.7C83.169 40.18 83.0356 40.7533 83.0356 41.42C83.0356 42.0867 83.169 42.6733 83.4356 43.18C83.7156 43.6733 84.0756 44.0533 84.5156 44.32C84.969 44.5867 85.449 44.72 85.9556 44.72C86.4756 44.72 86.9623 44.5933 87.4156 44.34C87.869 44.0733 88.229 43.7 88.4956 43.22C88.7623 42.7267 88.8956 42.14 88.8956 41.46ZM101.01 47L97.2503 42.28V47H94.4503V32.2H97.2503V40.62L100.97 35.92H104.61L99.7303 41.48L104.65 47H101.01ZM107.55 34.6C107.057 34.6 106.643 34.4467 106.31 34.14C105.99 33.82 105.83 33.4267 105.83 32.96C105.83 32.4933 105.99 32.1067 106.31 31.8C106.643 31.48 107.057 31.32 107.55 31.32C108.043 31.32 108.45 31.48 108.77 31.8C109.103 32.1067 109.27 32.4933 109.27 32.96C109.27 33.4267 109.103 33.82 108.77 34.14C108.45 34.4467 108.043 34.6 107.55 34.6ZM108.93 35.92V47H106.13V35.92H108.93ZM118.256 47L114.496 42.28V47H111.696V32.2H114.496V40.62L118.216 35.92H121.856L116.976 41.48L121.896 47H118.256ZM122.656 41.42C122.656 40.3 122.876 39.3067 123.316 38.44C123.769 37.5733 124.376 36.9067 125.136 36.44C125.909 35.9733 126.769 35.74 127.716 35.74C128.543 35.74 129.263 35.9067 129.876 36.24C130.503 36.5733 131.003 36.9933 131.376 37.5V35.92H134.196V47H131.376V45.38C131.016 45.9 130.516 46.3333 129.876 46.68C129.249 47.0133 128.523 47.18 127.696 47.18C126.763 47.18 125.909 46.94 125.136 46.46C124.376 45.98 123.769 45.3067 123.316 44.44C122.876 43.56 122.656 42.5533 122.656 41.42ZM131.376 41.46C131.376 40.78 131.243 40.2 130.976 39.72C130.709 39.2267 130.349 38.8533 129.896 38.6C129.443 38.3333 128.956 38.2 128.436 38.2C127.916 38.2 127.436 38.3267 126.996 38.58C126.556 38.8333 126.196 39.2067 125.916 39.7C125.649 40.18 125.516 40.7533 125.516 41.42C125.516 42.0867 125.649 42.6733 125.916 43.18C126.196 43.6733 126.556 44.0533 126.996 44.32C127.449 44.5867 127.929 44.72 128.436 44.72C128.956 44.72 129.443 44.5933 129.896 44.34C130.349 44.0733 130.709 43.7 130.976 43.22C131.243 42.7267 131.376 42.14 131.376 41.46ZM144.496 33.04V47H141.696V33.04H144.496ZM143.096 31.7C142.723 31.7 142.41 31.5733 142.156 31.32C141.903 31.0667 141.776 30.7533 141.776 30.38C141.776 30.0067 141.903 29.6933 142.156 29.44C142.41 29.1733 142.723 29.04 143.096 29.04C143.47 29.04 143.783 29.1733 144.036 29.44C144.303 29.6933 144.436 30.0067 144.436 30.38C144.436 30.7533 144.303 31.0667 144.036 31.32C143.783 31.5733 143.47 31.7 143.096 31.7ZM152.003 44.78C153.136 44.78 153.876 44.2733 154.223 43.26H157.243C156.963 44.34 156.443 45.22 155.683 45.9C154.936 46.58 153.996 46.9867 152.863 47.12V47.9C153.596 47.9 154.209 48.0867 154.703 48.46C155.209 48.8333 155.463 49.3733 155.463 50.08C155.463 50.8 155.203 51.3533 154.683 51.74C154.176 52.1267 153.549 52.32 152.803 52.32H149.963V50.68H152.343C152.663 50.68 152.903 50.6333 153.063 50.54C153.236 50.4467 153.323 50.28 153.323 50.04C153.323 49.8 153.236 49.6333 153.063 49.54C152.903 49.46 152.663 49.42 152.343 49.42H151.103V47.12C150.196 46.9867 149.396 46.6733 148.703 46.18C148.023 45.6733 147.489 45.02 147.103 44.22C146.729 43.4067 146.543 42.4867 146.543 41.46C146.543 40.3133 146.776 39.3133 147.243 38.46C147.709 37.5933 148.356 36.9267 149.183 36.46C150.009 35.98 150.956 35.74 152.023 35.74C153.396 35.74 154.529 36.0867 155.423 36.78C156.329 37.46 156.936 38.42 157.243 39.66H154.223C154.063 39.18 153.789 38.8067 153.403 38.54C153.029 38.26 152.563 38.12 152.003 38.12C151.203 38.12 150.569 38.4133 150.103 39C149.636 39.5733 149.403 40.3933 149.403 41.46C149.403 42.5133 149.636 43.3333 150.103 43.92C150.569 44.4933 151.203 44.78 152.003 44.78ZM160.714 34.6C160.221 34.6 159.807 34.4467 159.474 34.14C159.154 33.82 158.994 33.4267 158.994 32.96C158.994 32.4933 159.154 32.1067 159.474 31.8C159.807 31.48 160.221 31.32 160.714 31.32C161.207 31.32 161.614 31.48 161.934 31.8C162.267 32.1067 162.434 32.4933 162.434 32.96C162.434 33.4267 162.267 33.82 161.934 34.14C161.614 34.4467 161.207 34.6 160.714 34.6ZM162.094 35.92V47H159.294V35.92H162.094ZM171 35.76C172.32 35.76 173.387 36.18 174.2 37.02C175.014 37.8467 175.42 39.0067 175.42 40.5V47H172.62V40.88C172.62 40 172.4 39.3267 171.96 38.86C171.52 38.38 170.92 38.14 170.16 38.14C169.387 38.14 168.774 38.38 168.32 38.86C167.88 39.3267 167.66 40 167.66 40.88V47H164.86V35.92H167.66V37.3C168.034 36.82 168.507 36.4467 169.08 36.18C169.667 35.9 170.307 35.76 171 35.76ZM177.363 41.42C177.363 40.3 177.583 39.3067 178.023 38.44C178.476 37.5733 179.09 36.9067 179.863 36.44C180.636 35.9733 181.496 35.74 182.443 35.74C183.163 35.74 183.85 35.9 184.503 36.22C185.156 36.5267 185.676 36.94 186.063 37.46V32.2H188.903V47H186.063V45.36C185.716 45.9067 185.23 46.3467 184.603 46.68C183.976 47.0133 183.25 47.18 182.423 47.18C181.49 47.18 180.636 46.94 179.863 46.46C179.09 45.98 178.476 45.3067 178.023 44.44C177.583 43.56 177.363 42.5533 177.363 41.42ZM186.083 41.46C186.083 40.78 185.95 40.2 185.683 39.72C185.416 39.2267 185.056 38.8533 184.603 38.6C184.15 38.3333 183.663 38.2 183.143 38.2C182.623 38.2 182.143 38.3267 181.703 38.58C181.263 38.8333 180.903 39.2067 180.623 39.7C180.356 40.18 180.223 40.7533 180.223 41.42C180.223 42.0867 180.356 42.6733 180.623 43.18C180.903 43.6733 181.263 44.0533 181.703 44.32C182.156 44.5867 182.636 44.72 183.143 44.72C183.663 44.72 184.15 44.5933 184.603 44.34C185.056 44.0733 185.416 43.7 185.683 43.22C185.95 42.7267 186.083 42.14 186.083 41.46ZM201.938 41.22C201.938 41.62 201.911 41.98 201.858 42.3H193.758C193.824 43.1 194.104 43.7267 194.598 44.18C195.091 44.6333 195.698 44.86 196.418 44.86C197.458 44.86 198.198 44.4133 198.638 43.52H201.658C201.338 44.5867 200.724 45.4667 199.818 46.16C198.911 46.84 197.798 47.18 196.478 47.18C195.411 47.18 194.451 46.9467 193.598 46.48C192.758 46 192.098 45.3267 191.618 44.46C191.151 43.5933 190.918 42.5933 190.918 41.46C190.918 40.3133 191.151 39.3067 191.618 38.44C192.084 37.5733 192.738 36.9067 193.578 36.44C194.418 35.9733 195.384 35.74 196.478 35.74C197.531 35.74 198.471 35.9667 199.298 36.42C200.138 36.8733 200.784 37.52 201.238 38.36C201.704 39.1867 201.938 40.14 201.938 41.22ZM199.038 40.42C199.024 39.7 198.764 39.1267 198.258 38.7C197.751 38.26 197.131 38.04 196.398 38.04C195.704 38.04 195.118 38.2533 194.638 38.68C194.171 39.0933 193.884 39.6733 193.778 40.42H199.038Z" fill="#18172B"/>
<path d="M11.99 30C6.47 30 2 34.48 2 40C2 45.52 6.47 50 11.99 50C17.52 50 22 45.52 22 40C22 34.48 17.52 30 11.99 30ZM12 48C7.58 48 4 44.42 4 40C4 35.58 7.58 32 12 32C16.42 32 20 35.58 20 40C20 44.42 16.42 48 12 48ZM11.78 35H11.72C11.32 35 11 35.32 11 35.72V40.44C11 40.79 11.18 41.12 11.49 41.3L15.64 43.79C15.98 43.99 16.42 43.89 16.62 43.55C16.6702 43.469 16.7036 43.3788 16.7182 43.2846C16.7328 43.1905 16.7283 43.0943 16.705 43.002C16.6817 42.9096 16.64 42.8229 16.5824 42.7469C16.5249 42.671 16.4526 42.6074 16.37 42.56L12.5 40.26V35.72C12.5 35.32 12.18 35 11.78 35Z" fill="#6E80B0"/>
</svg>
