<svg width="88" height="32" viewBox="0 0 88 32" fill="none" xmlns="http://www.w3.org/2000/svg">
<rect width="88" height="32" rx="12" fill="#0094F2"/>
<g clip-path="url(#clip0_66_159)">
<path d="M14.268 12.764V15.212H17.148V16.328H14.268V18.884H17.508V20H12.9V11.648H17.508V12.764H14.268ZM21.809 16.7L24.857 20H23.009L20.561 17.156V20H19.193V11.12H20.561V16.28L22.961 13.388H24.857L21.809 16.7ZM27.2055 11.12V20H25.8375V11.12H27.2055ZM35.0616 16.532C35.0616 16.78 35.0456 17.004 35.0136 17.204H29.9616C30.0016 17.732 30.1976 18.156 30.5496 18.476C30.9016 18.796 31.3336 18.956 31.8456 18.956C32.5816 18.956 33.1016 18.648 33.4056 18.032H34.8816C34.6816 18.64 34.3176 19.14 33.7896 19.532C33.2696 19.916 32.6216 20.108 31.8456 20.108C31.2136 20.108 30.6456 19.968 30.1416 19.688C29.6456 19.4 29.2536 19 28.9656 18.488C28.6856 17.968 28.5456 17.368 28.5456 16.688C28.5456 16.008 28.6816 15.412 28.9536 14.9C29.2336 14.38 29.6216 13.98 30.1176 13.7C30.6216 13.42 31.1976 13.28 31.8456 13.28C32.4696 13.28 33.0256 13.416 33.5136 13.688C34.0016 13.96 34.3816 14.344 34.6536 14.84C34.9256 15.328 35.0616 15.892 35.0616 16.532ZM33.6336 16.1C33.6256 15.596 33.4456 15.192 33.0936 14.888C32.7416 14.584 32.3056 14.432 31.7856 14.432C31.3136 14.432 30.9096 14.584 30.5736 14.888C30.2376 15.184 30.0376 15.588 29.9736 16.1H33.6336ZM39.7438 13.28C40.2638 13.28 40.7278 13.388 41.1358 13.604C41.5518 13.82 41.8758 14.14 42.1078 14.564C42.3398 14.988 42.4558 15.5 42.4558 16.1V20H41.0998V16.304C41.0998 15.712 40.9518 15.26 40.6558 14.948C40.3598 14.628 39.9558 14.468 39.4438 14.468C38.9318 14.468 38.5238 14.628 38.2198 14.948C37.9238 15.26 37.7758 15.712 37.7758 16.304V20H36.4078V13.388H37.7758V14.144C37.9998 13.872 38.2838 13.66 38.6278 13.508C38.9798 13.356 39.3518 13.28 39.7438 13.28ZM43.7448 16.664C43.7448 16 43.8808 15.412 44.1528 14.9C44.4328 14.388 44.8088 13.992 45.2808 13.712C45.7608 13.424 46.2928 13.28 46.8768 13.28C47.3088 13.28 47.7328 13.376 48.1488 13.568C48.5728 13.752 48.9088 14 49.1568 14.312V11.12H50.5368V20H49.1568V19.004C48.9328 19.324 48.6208 19.588 48.2208 19.796C47.8288 20.004 47.3768 20.108 46.8648 20.108C46.2888 20.108 45.7608 19.964 45.2808 19.676C44.8088 19.38 44.4328 18.972 44.1528 18.452C43.8808 17.924 43.7448 17.328 43.7448 16.664ZM49.1568 16.688C49.1568 16.232 49.0608 15.836 48.8688 15.5C48.6848 15.164 48.4408 14.908 48.1368 14.732C47.8328 14.556 47.5048 14.468 47.1528 14.468C46.8008 14.468 46.4728 14.556 46.1688 14.732C45.8648 14.9 45.6168 15.152 45.4248 15.488C45.2408 15.816 45.1488 16.208 45.1488 16.664C45.1488 17.12 45.2408 17.52 45.4248 17.864C45.6168 18.208 45.8648 18.472 46.1688 18.656C46.4808 18.832 46.8088 18.92 47.1528 18.92C47.5048 18.92 47.8328 18.832 48.1368 18.656C48.4408 18.48 48.6848 18.224 48.8688 17.888C49.0608 17.544 49.1568 17.144 49.1568 16.688ZM53.0296 12.512C52.7816 12.512 52.5736 12.428 52.4056 12.26C52.2376 12.092 52.1536 11.884 52.1536 11.636C52.1536 11.388 52.2376 11.18 52.4056 11.012C52.5736 10.844 52.7816 10.76 53.0296 10.76C53.2696 10.76 53.4736 10.844 53.6416 11.012C53.8096 11.18 53.8936 11.388 53.8936 11.636C53.8936 11.884 53.8096 12.092 53.6416 12.26C53.4736 12.428 53.2696 12.512 53.0296 12.512ZM53.7016 13.388V20H52.3336V13.388H53.7016Z" fill="white"/>
<path d="M75.5461 12.2037C75.929 12.5866 75.929 13.2073 75.5461 13.59L68.9704 20.1659C68.5875 20.5486 67.967 20.5486 67.5841 20.1659L64.4538 17.0354C64.0709 16.6527 64.0709 16.032 64.4538 15.6493C64.8365 15.2664 65.4572 15.2664 65.8399 15.6493L68.2771 18.0866L74.1599 12.2037C74.5428 11.821 75.1634 11.821 75.5461 12.2037Z" fill="white"/>
</g>
<defs>
<clipPath id="clip0_66_159">
<rect width="65" height="18" fill="white" transform="translate(12 7)"/>
</clipPath>
</defs>
</svg>
