<svg width="12" height="13" viewBox="0 0 12 13" fill="none" xmlns="http://www.w3.org/2000/svg">
<path d="M10.9735 5.33951C10.9421 5.24694 10.8842 5.1656 10.8071 5.10554C10.73 5.04547 10.637 5.00931 10.5395 5.00151L7.68902 4.77501L6.45552 2.04451C6.41624 1.95656 6.35234 1.88187 6.27154 1.82944C6.19075 1.777 6.0965 1.74908 6.00018 1.74902C5.90386 1.74897 5.80959 1.77679 5.72873 1.82914C5.64788 1.88148 5.5839 1.95611 5.54452 2.04401L4.31102 4.77501L1.46052 5.00151C1.36475 5.00909 1.27319 5.04411 1.1968 5.10237C1.12041 5.16063 1.06242 5.23967 1.02977 5.33002C0.997117 5.42038 0.99119 5.51822 1.01269 5.61186C1.0342 5.70549 1.08222 5.79095 1.15102 5.85801L3.25752 7.91151L2.51252 11.1375C2.4899 11.2352 2.49715 11.3374 2.53333 11.4308C2.56951 11.5243 2.63295 11.6048 2.71542 11.6617C2.79789 11.7187 2.89558 11.7496 2.99581 11.7503C3.09605 11.7511 3.19419 11.7217 3.27752 11.666L6.00002 9.85101L8.72252 11.666C8.80769 11.7226 8.90813 11.7517 9.01034 11.7494C9.11254 11.7472 9.21161 11.7137 9.29422 11.6535C9.37683 11.5932 9.43901 11.5092 9.47241 11.4125C9.5058 11.3159 9.50881 11.2114 9.48102 11.113L8.56652 7.91301L10.8345 5.87201C10.983 5.73801 11.0375 5.52901 10.9735 5.33951Z" fill="#FFB200"/>
</svg>
