<svg width="48" height="48" viewBox="0 0 48 48" fill="none" xmlns="http://www.w3.org/2000/svg">
<path d="M31 19H34" stroke="#18172B" stroke-width="2" stroke-linecap="round" stroke-linejoin="round"/>
<path d="M14.4312 19H25.6812" stroke="#18172B" stroke-width="2" stroke-linecap="round" stroke-linejoin="round"/>
<path d="M22.75 29H33.75" stroke="#18172B" stroke-width="2" stroke-linecap="round" stroke-linejoin="round"/>
<path d="M14.4312 29H17.4312" stroke="#18172B" stroke-width="2" stroke-linecap="round" stroke-linejoin="round"/>
<path d="M28.5 21.5C29.8807 21.5 31 20.3807 31 19C31 17.6193 29.8807 16.5 28.5 16.5C27.1193 16.5 26 17.6193 26 19C26 20.3807 27.1193 21.5 28.5 21.5Z" stroke="#18172B" stroke-width="2" stroke-linecap="round" stroke-linejoin="round"/>
<path d="M20.25 31.5C21.6307 31.5 22.75 30.3807 22.75 29C22.75 27.6193 21.6307 26.5 20.25 26.5C18.8693 26.5 17.75 27.6193 17.75 29C17.75 30.3807 18.8693 31.5 20.25 31.5Z" stroke="#18172B" stroke-width="2" stroke-linecap="round" stroke-linejoin="round"/>
</svg>
