<svg width="32" height="32" viewBox="0 0 32 32" fill="none" xmlns="http://www.w3.org/2000/svg">
<path d="M16 2.66666C10.84 2.66666 6.66667 6.83999 6.66667 12C6.66667 19 16 29.3333 16 29.3333C16 29.3333 25.3333 19 25.3333 12C25.3333 6.83999 21.16 2.66666 16 2.66666ZM16 15.3333C15.116 15.3333 14.2681 14.9821 13.643 14.357C13.0179 13.7319 12.6667 12.884 12.6667 12C12.6667 11.1159 13.0179 10.2681 13.643 9.64297C14.2681 9.01785 15.116 8.66666 16 8.66666C16.8841 8.66666 17.7319 9.01785 18.357 9.64297C18.9821 10.2681 19.3333 11.1159 19.3333 12C19.3333 12.884 18.9821 13.7319 18.357 14.357C17.7319 14.9821 16.8841 15.3333 16 15.3333Z" fill="#0094F2"/>
</svg>
